<svg xmlns="http://www.w3.org/2000/svg" width="182" height="116" viewBox="0 0 182 116">
    <g fill="none" fill-rule="nonzero" transform="translate(-4)">
        <rect width="75.44" height="14.48" x="47.7" y="72.64" fill="#D3B396" rx="7.24"/>
        <rect width="75.44" height="14.48" x="62.8" y="58.16" fill="#D3B396" rx="7.24"/>
        <path fill="#D3B396" d="M71.52 40.12h30.96V64.2H71.52z"/>
        <path fill="#303C42" d="M91.74 0l86.84.28a6.9 6.9 0 0 1 6.9 6.94l-.16 48.56a6.96 6.96 0 0 1-6.96 6.9l-86.84-.28a6.92 6.92 0 0 1-6.9-6.94L84.8 6.9A6.9 6.9 0 0 1 91.74 0z"/>
        <path fill="#FFF" d="M118.86 54l2.7-3.48.78-.92h-3.2v-.86h4.52v.68l-2.68 3.38c-.24.32-.5.62-.76.92h3.46v.86h-4.82V54zM126 47.04a.62.62 0 0 1-.68.66.66.66 0 1 1 0-1.32.6.6 0 0 1 .68.66zm-1.22 7.58v-6h1.08v6h-1.08zM127.66 50.66v-2h.96v1.02a2.32 2.32 0 0 1 2.1-1.14 2.68 2.68 0 0 1 2.5 3.02c0 2.12-1.32 3.18-2.72 3.16a2 2 0 0 1-1.82-.92v3.22h-1.08l.06-6.36zm1.06 1.58a3 3 0 0 0 0 .44 1.66 1.66 0 0 0 1.6 1.26c1.14 0 1.82-.92 1.82-2.28 0-1.36-.62-2.2-1.76-2.2a1.88 1.88 0 0 0-1.7 1.76l.04 1.02zM138.82 54.48a4.12 4.12 0 0 1-1.7.32 2.82 2.82 0 0 1-2.94-3.02 3.02 3.02 0 0 1 3.2-3.14 3.42 3.42 0 0 1 1.5.32l-.26.82a2.58 2.58 0 0 0-1.24-.28 2.24 2.24 0 0 0 0 4.46c.457.003.909-.1 1.32-.3l.12.82zM143.36 54.72v-.76a2.2 2.2 0 0 1-1.82.88 1.68 1.68 0 0 1-1.8-1.72c0-1.42 1.28-2.2 3.58-2.18v-.12a1.24 1.24 0 0 0-1.34-1.38 3.08 3.08 0 0 0-1.56.44l-.42-.72a4 4 0 0 1 2-.52c1.8 0 2.24 1.26 2.24 2.44v2.22a7.64 7.64 0 0 0 0 1.42h-.88zm-.14-3.04c-1.18 0-2.52.18-2.52 1.34a.94.94 0 0 0 1 1.02 1.46 1.46 0 0 0 1.44-.98 1.02 1.02 0 0 0 0-.34l.08-1.04zM146 50.64V48.8h.94V50a1.78 1.78 0 0 1 1.64-1.28h.3v1.02a1 1 0 0 0-.36 0 1.52 1.52 0 0 0-1.46 1.38 3.38 3.38 0 0 0 0 .5v3.14H146v-4.12zM155 46v8.68h-1v-1.02a2.16 2.16 0 0 1-2 1.14 2.68 2.68 0 0 1-2.52-3.02 2.82 2.82 0 0 1 2.66-3.16 2 2 0 0 1 1.78.9V46H155zm-1 5.24a1.72 1.72 0 0 0 0-.44 1.6 1.6 0 0 0-1.54-1.26c-1.12 0-1.78.98-1.8 2.28-.02 1.3.58 2.2 1.74 2.2a1.62 1.62 0 0 0 1.58-1.28 1.7 1.7 0 0 0 0-.46l.02-1.04z"/>
        <path fill="#51A601" d="M119.5 24a4.42 4.42 0 1 1-6.24 0 4.44 4.44 0 0 1 6.24 0m-8.48 12.96c5.46 5.428 14.28 5.428 19.74 0a14.34 14.34 0 0 0 2.98-4.36l28.76.1 3.24-3.22v-1.52l-4.54-4.42h-1.52l-2.28 2.26-2.28-2.28h-1.52l-2.28 2.26-2.28-2.28h-1.52l-2.28 2.26h-3.04L138.42 22h-4.6a13.62 13.62 0 0 0-2.98-4.56c-5.533-4.84-13.866-4.576-19.082.603-5.216 5.18-5.538 13.51-.738 19.077"/>
        <path fill="#FFF" d="M122.12 41.26a14.24 14.24 0 0 1-10-4.22c-5.035-5.665-4.775-14.275.592-19.626 5.367-5.352 13.978-5.586 19.628-.534a14.68 14.68 0 0 1 2.86 4.16h4.22l3.66 3.7h2.26l2.22-2.2h2.14l1.86 1.86 1.86-1.86h2.16l1.84 1.86 1.88-1.86h2.14l4.86 4.88v2.16l-3.62 3.58-27.6-.1a14.16 14.16 0 0 1-12.96 8.12v.08zM113.2 36a12.68 12.68 0 0 0 18 0 12.54 12.54 0 0 0 2.7-4l.22-.5 28 .1 2.66-2.62v-.8l-4-4H160l-2.54 2.52-2.54-2.54h-.78l-2.56 2.52-2.56-2.48h-.8L146 26.4h-3.6l-3.66-3.68h-4.64l-.2-.52A12.66 12.66 0 1 0 113.2 36zm4.56-4a5.06 5.06 0 1 1 3.62-8.64 5.08 5.08 0 0 1-3.62 8.64zm0-8.52a3.5 3.5 0 0 0-2.44 1 3.44 3.44 0 1 0 4.86 0 3.54 3.54 0 0 0-2.38-.98l-.04-.02z"/>
        <path fill="#FFF" d="M121.38 11.86c-8.35-.033-15.147 6.71-15.18 15.06-.033 8.35 6.71 15.147 15.06 15.18 8.35.033 15.147-6.71 15.18-15.06.011-8.342-6.719-15.125-15.06-15.18"/>
        <path fill="#51A601" d="M107.68 26.92a13.64 13.64 0 1 1 13.56 13.7 13.62 13.62 0 0 1-13.56-13.7"/>
        <path fill="#FFF" d="M134.28 32c0-.18.14-.38.2-.58h-11.44l.56-.7h8a.3.3 0 0 0 .3-.3.28.28 0 0 0-.3-.28L124 30l.56-.7h4a.26.26 0 0 0 .24-.28c0-.18 0-.3-.24-.3h-10.68l6.58-8.5h-10.78v2.32h5.74l-6 7.76-1.22 1.7h4.78a2.66 2.66 0 0 1 2.52-1.68A2.7 2.7 0 0 1 122 32h12.28z"/>
        <path fill="#4D4D5A" d="M121.6 33a2.1 2.1 0 1 1-2-2.12 2.12 2.12 0 0 1 2 2.12"/>
        <path fill="#F0D0B6" d="M70.52 90.84l38.66-37.76a8.78 8.78 0 0 0 0-12.34 8.74 8.74 0 0 0-12.34 0L80 57.04l-4.66-14.48h9.22V27.08h-17.2a4.24 4.24 0 0 0-3.66 1.5L6.1 85.52l27.38 27.38 11.58-11.56H54s5.64.58 11.32-5.22c5.68-5.8 5.2-5.28 5.2-5.28z"/>
        <path fill="#FFF" d="M102 56.1l4.68-5.06a5.86 5.86 0 0 0 0-8.24 5.86 5.86 0 0 0-8.24 0l-4.64 5.06 8.2 8.24z"/>
        <rect width="48.98" height="38.76" x="7.252" y="68.161" fill="#F0D0B6" rx="8" transform="rotate(-44.25 31.742 87.541)"/>
    </g>
</svg>
